<?xml version="1.0" standalone="no"?>
<!DOCTYPE svg PUBLIC "-//W3C//DTD SVG 20010904//EN"
 "http://www.w3.org/TR/2001/REC-SVG-20010904/DTD/svg10.dtd">
<svg version="1.0" xmlns="http://www.w3.org/2000/svg"
 width="156.000000pt" height="156.000000pt" viewBox="0 0 156.000000 156.000000"
 preserveAspectRatio="xMidYMid meet">
<metadata>
Created by potrace 1.11, written by Peter Selinger 2001-2013
</metadata>
<g transform="translate(0.000000,156.000000) scale(0.100000,-0.100000)"
fill="#000000" stroke="none">
<path d="M471 1524 c0 -11 3 -14 6 -6 3 7 2 16 -1 19 -3 4 -6 -2 -5 -13z"/>
<path d="M720 1489 l0 -51 -62 4 -63 3 3 -63 4 -62 -126 2 -126 3 0 -62 0 -63
-63 0 -64 0 0 -122 0 -123 61 0 61 0 5 -60 5 -60 49 -3 c28 -2 55 3 64 10 9 7
13 9 10 3 -4 -6 17 -10 55 -10 l62 0 5 60 c3 33 4 88 2 122 l-4 61 -62 4 -63
3 1 -62 2 -61 -63 -4 -63 -3 0 123 0 122 63 0 c34 1 118 2 186 3 l125 2 2 168
c2 92 1 167 -2 167 -2 0 -4 -23 -4 -51z m-243 -571 c-3 -8 -6 -5 -6 6 -1 11 2
17 5 13 3 -3 4 -12 1 -19z"/>
<path d="M1092 1520 c0 -14 2 -19 5 -12 2 6 2 18 0 25 -3 6 -5 1 -5 -13z"/>
<path d="M1342 1520 c0 -14 2 -19 5 -12 2 6 2 18 0 25 -3 6 -5 1 -5 -13z"/>
<path d="M222 1500 c0 -14 2 -19 5 -12 2 6 2 18 0 25 -3 6 -5 1 -5 -13z"/>
<path d="M1341 1474 c0 -11 3 -14 6 -6 3 7 2 16 -1 19 -3 4 -6 -2 -5 -13z"/>
<path d="M845 1325 l0 -120 -61 -3 -60 -3 -1 -62 -1 -62 65 0 64 0 -3 62 -3
62 125 3 c69 2 153 2 187 0 l62 -3 3 -121 3 -121 60 -1 60 -1 1 125 1 125 -63
-3 -64 -4 0 61 0 61 -62 1 c-35 0 -90 1 -123 2 l-60 2 0 60 0 60 -65 0 -65 0
0 -120z"/>
<path d="M1092 1365 c0 -16 2 -22 5 -12 2 9 2 23 0 30 -3 6 -5 -1 -5 -18z"/>
<path d="M1341 1354 c0 -11 3 -14 6 -6 3 7 2 16 -1 19 -3 4 -6 -2 -5 -13z"/>
<path d="M1341 1284 c0 -11 3 -14 6 -6 3 7 2 16 -1 19 -3 4 -6 -2 -5 -13z"/>
<path d="M1342 1240 c0 -14 2 -19 5 -12 2 6 2 18 0 25 -3 6 -5 1 -5 -13z"/>
<path d="M471 1184 c0 -11 3 -14 6 -6 3 7 2 16 -1 19 -3 4 -6 -2 -5 -13z"/>
<path d="M1092 1120 c0 -14 2 -19 5 -12 2 6 2 18 0 25 -3 6 -5 1 -5 -13z"/>
<path d="M471 1114 c0 -11 3 -14 6 -6 3 7 2 16 -1 19 -3 4 -6 -2 -5 -13z"/>
<path d="M1033 1083 l-62 -4 0 -115 c0 -63 -2 -118 -5 -123 -4 -7 33 -7 129
-1 6 1 37 0 70 -2 l60 -3 -3 62 -4 63 -62 0 -63 0 2 65 c1 36 1 64 1 63 -1 -1
-29 -3 -63 -5z"/>
<path d="M721 1024 c0 -11 3 -14 6 -6 3 7 2 16 -1 19 -3 4 -6 -2 -5 -13z"/>
<path d="M723 900 l1 -65 63 0 64 0 -2 65 -2 65 -62 0 -62 0 0 -65z"/>
<path d="M1342 915 c0 -16 2 -22 5 -12 2 9 2 23 0 30 -3 6 -5 -1 -5 -18z"/>
<path d="M220 840 c0 -5 5 -10 11 -10 5 0 7 5 4 10 -3 6 -8 10 -11 10 -2 0 -4
-4 -4 -10z"/>
<path d="M221 804 c0 -11 3 -14 6 -6 3 7 2 16 -1 19 -3 4 -6 -2 -5 -13z"/>
<path d="M1341 804 c0 -11 3 -14 6 -6 3 7 2 16 -1 19 -3 4 -6 -2 -5 -13z"/>
<path d="M721 784 c0 -11 3 -14 6 -6 3 7 2 16 -1 19 -3 4 -6 -2 -5 -13z"/>
<path d="M222 760 c0 -14 2 -19 5 -12 2 6 2 18 0 25 -3 6 -5 1 -5 -13z"/>
<path d="M1091 764 c0 -11 3 -14 6 -6 3 7 2 16 -1 19 -3 4 -6 -2 -5 -13z"/>
<path d="M723 677 l0 -88 64 2 63 2 0 59 c0 32 -1 61 -2 65 -2 3 -29 5 -60 4
-52 -2 -57 -1 -61 21 -2 13 -4 -17 -4 -65z"/>
<path d="M450 720 c-14 -3 -43 -6 -65 -5 l-40 2 3 -62 4 -61 56 0 c31 1 59 4
62 8 3 3 5 -53 4 -125 0 -73 1 -104 3 -69 l4 62 57 1 c31 1 59 1 62 1 3 0 3
27 0 61 -3 34 -3 90 0 123 l5 62 -59 1 c-32 1 -61 3 -65 5 -3 2 -17 0 -31 -4z"/>
<path d="M268 713 c12 -2 32 -2 45 0 12 2 2 4 -23 4 -25 0 -35 -2 -22 -4z"/>
<path d="M913 713 c9 -2 23 -2 30 0 6 3 -1 5 -18 5 -16 0 -22 -2 -12 -5z"/>
<path d="M970 656 c3 -34 3 -89 0 -123 l-5 -62 66 -3 65 -3 -1 73 c-1 40 1 69
4 65 3 -5 31 -10 63 -11 l56 -4 4 66 3 66 -130 -2 -130 -2 5 -60z"/>
<path d="M1388 713 c18 -2 45 -2 60 0 15 2 0 4 -33 4 -33 0 -45 -2 -27 -4z"/>
<path d="M223 660 c0 -25 2 -35 4 -22 2 12 2 32 0 45 -2 12 -4 2 -4 -23z"/>
<path d="M1342 655 c0 -16 2 -22 5 -12 2 9 2 23 0 30 -3 6 -5 -1 -5 -18z"/>
<path d="M208 599 c-6 -4 -5 -8 3 -11 10 -3 13 -33 11 -124 l-1 -119 64 3 65
4 0 -61 0 -61 125 0 125 0 0 -60 0 -60 65 0 64 0 -2 117 -3 118 -124 2 c-69 1
-153 2 -187 3 l-62 0 0 117 c0 64 -4 119 -8 124 -10 9 -122 16 -135 8z"/>
<path d="M1335 600 c-2 -3 -26 -5 -54 -4 -29 1 -54 -3 -57 -7 -3 -5 -5 -60 -5
-124 l0 -115 -59 0 -59 0 -4 53 -3 52 -2 -52 -2 -52 -122 -3 -122 -3 0 -120
-1 -120 65 0 65 0 -3 62 -4 63 126 0 126 0 0 60 0 60 65 0 65 0 -1 103 c-2
148 -7 136 54 139 l52 3 -58 5 c-33 3 -60 3 -62 0z"/>
<path d="M678 593 c6 -2 18 -2 25 0 6 3 1 5 -13 5 -14 0 -19 -2 -12 -5z"/>
<path d="M873 593 c9 -2 23 -2 30 0 6 3 -1 5 -18 5 -16 0 -22 -2 -12 -5z"/>
<path d="M948 593 c7 -3 16 -2 19 1 4 3 -2 6 -13 5 -11 0 -14 -3 -6 -6z"/>
<path d="M723 545 c0 -22 2 -30 4 -17 2 12 2 30 0 40 -3 9 -5 -1 -4 -23z"/>
<path d="M724 415 l1 -60 63 -3 62 -3 0 63 0 63 -63 0 -63 0 0 -60z"/>
<path d="M928 473 c7 -3 16 -2 19 1 4 3 -2 6 -13 5 -11 0 -14 -3 -6 -6z"/>
<path d="M222 305 c0 -16 2 -22 5 -12 2 9 2 23 0 30 -3 6 -5 -1 -5 -18z"/>
<path d="M1343 170 c0 -30 2 -43 4 -28 2 16 2 40 0 56 -2 15 -4 2 -4 -28z"/>
<path d="M223 165 c0 -27 2 -38 4 -22 2 15 2 37 0 50 -2 12 -4 0 -4 -28z"/>
<path d="M473 160 c0 -25 2 -35 4 -22 2 12 2 32 0 45 -2 12 -4 2 -4 -23z"/>
<path d="M1093 160 c0 -25 2 -35 4 -22 2 12 2 32 0 45 -2 12 -4 2 -4 -23z"/>
<path d="M721 84 c0 -11 3 -14 6 -6 3 7 2 16 -1 19 -3 4 -6 -2 -5 -13z"/>
<path d="M1343 45 c0 -27 2 -38 4 -22 2 15 2 37 0 50 -2 12 -4 0 -4 -28z"/>
<path d="M473 40 c0 -25 2 -35 4 -22 2 12 2 32 0 45 -2 12 -4 2 -4 -23z"/>
<path d="M1093 40 c0 -25 2 -35 4 -22 2 12 2 32 0 45 -2 12 -4 2 -4 -23z"/>
<path d="M722 25 c0 -17 2 -22 5 -12 2 9 2 23 0 30 -3 6 -5 -1 -5 -18z"/>
<path d="M222 20 c0 -14 2 -19 5 -12 2 6 2 18 0 25 -3 6 -5 1 -5 -13z"/>
</g>
</svg>
